<svg xmlns="http://www.w3.org/2000/svg" width="1280" height="520" viewBox="0 0 1280 520" role="img" aria-labelledby="title desc">
  <title id="title">SONGVALE — every sound finds a way</title>
  <desc id="desc">SONGVALE product banner showing an original sound-valley mark and resilient multi-source playback.</desc>
  <defs>
    <linearGradient id="background" x1="0" y1="0" x2="1" y2="1">
      <stop offset="0" stop-color="#050806"/>
      <stop offset="0.58" stop-color="#09110b"/>
      <stop offset="1" stop-color="#12180f"/>
    </linearGradient>
    <radialGradient id="halo" cx="0.74" cy="0.42" r="0.62">
      <stop offset="0" stop-color="#31501f" stop-opacity="0.42"/>
      <stop offset="1" stop-color="#071009" stop-opacity="0"/>
    </radialGradient>
    <pattern id="grid" width="36" height="36" patternUnits="userSpaceOnUse">
      <path d="M36 0H0V36" fill="none" stroke="#dfe9d5" stroke-opacity="0.035"/>
    </pattern>
  </defs>

  <rect width="1280" height="520" rx="26" fill="url(#background)"/>
  <rect width="1280" height="520" rx="26" fill="url(#halo)"/>
  <rect width="1280" height="520" rx="26" fill="url(#grid)"/>
  <path d="M64 58H1216M64 462H1216" stroke="#dfe9d5" stroke-opacity="0.12"/>
  <path d="M64 58V462" stroke="#ff6516" stroke-width="3"/>

  <g transform="translate(92 82)">
    <rect width="74" height="74" rx="19" fill="#09120c" stroke="#314338" stroke-width="2.5"/>
    <g fill="#f1f0e8">
      <rect x="12" y="25" width="8" height="30" rx="4"/><rect x="24" y="17" width="8" height="46" rx="4"/><rect x="36" y="10" width="8" height="58" rx="4"/><rect x="48" y="17" width="8" height="46" rx="4"/><rect x="60" y="25" width="8" height="30" rx="4"/>
    </g>
    <path d="M10 31c9 4 14 11 24 14 12 4 19-8 32-14" fill="none" stroke="#ff6b1a" stroke-width="6" stroke-linecap="round"/>
  </g>
  <text x="88" y="252" fill="#f3f2e9" font-family="Segoe UI,Avenir Next,Helvetica Neue,Arial,sans-serif" font-size="70" font-weight="650" letter-spacing="9">SONGVALE</text>
  <text x="92" y="295" fill="#ff6b1a" font-family="Segoe UI,Arial,sans-serif" font-size="13" font-weight="700" letter-spacing="3.8">EVERY SOUND FINDS A WAY</text>
  <text x="92" y="343" fill="#a8aea3" font-family="Arial,Helvetica,sans-serif" font-size="17">Local-first discovery across fragmented music catalogs.</text>
  <text x="92" y="370" fill="#a8aea3" font-family="Arial,Helvetica,sans-serif" font-size="17">Your library stays on your device. Playback keeps moving.</text>

  <g font-family="Arial,Helvetica,sans-serif" font-size="11" font-weight="700" letter-spacing="1.2">
    <rect x="92" y="408" width="86" height="30" rx="15" fill="#ff6516"/>
    <text x="113" y="428" fill="#11120f">v2.0.0</text>
    <rect x="188" y="408" width="122" height="30" rx="15" fill="#f3f2e9" fill-opacity="0.07" stroke="#f3f2e9" stroke-opacity="0.16"/>
    <text x="208" y="428" fill="#d8dbd1">WEB · WIN</text>
    <rect x="320" y="408" width="132" height="30" rx="15" fill="#f3f2e9" fill-opacity="0.07" stroke="#f3f2e9" stroke-opacity="0.16"/>
    <text x="339" y="428" fill="#d8dbd1">LOCAL-FIRST</text>
  </g>

  <g>
    <rect x="724" y="78" width="460" height="360" rx="22" fill="#07100a" stroke="#dfe9d5" stroke-opacity="0.18"/>
    <rect x="750" y="104" width="408" height="54" rx="13" fill="#020704" stroke="#dfe9d5" stroke-opacity="0.17"/>
    <circle cx="776" cy="131" r="5" fill="#ff6516"/>
    <text x="795" y="137" fill="#e8e9e1" font-family="Arial,Helvetica,sans-serif" font-size="17">midnight signal</text>
    <rect x="1108" y="112" width="38" height="38" rx="10" fill="#ff6516"/>
    <path d="M1120 137l13-13m-8 0h8v8" fill="none" stroke="#11120f" stroke-width="2.4" stroke-linecap="round" stroke-linejoin="round"/>

    <text x="750" y="195" fill="#8e968a" font-family="Arial,Helvetica,sans-serif" font-size="10" font-weight="700" letter-spacing="1.8">CONNECTED RESULTS</text>
    <text x="1070" y="195" fill="#ff8a4d" font-family="Arial,Helvetica,sans-serif" font-size="10" font-weight="700">MULTI-SOURCE</text>

    <g font-family="Arial,Helvetica,sans-serif">
      <rect x="750" y="214" width="408" height="62" rx="12" fill="#0c160e" stroke="#ff6516" stroke-opacity="0.7"/>
      <circle cx="778" cy="245" r="14" fill="#ff6516"/>
      <path d="M774 239l10 6-10 6z" fill="#11120f"/>
      <text x="806" y="242" fill="#f3f2e9" font-size="13" font-weight="700">Midnight Signal</text>
      <text x="806" y="260" fill="#7f887d" font-size="10">Audius · playing</text>

      <rect x="750" y="286" width="408" height="62" rx="12" fill="#09110b" stroke="#dfe9d5" stroke-opacity="0.12"/>
      <circle cx="778" cy="317" r="14" fill="#f3f2e9" fill-opacity="0.08"/>
      <path d="M774 311l10 6-10 6z" fill="#d9ddd3"/>
      <text x="806" y="314" fill="#f3f2e9" font-size="13" font-weight="700">Unavailable Signal</text>
      <text x="806" y="332" fill="#7f887d" font-size="10">Fallback ready</text>
    </g>

    <g fill="#667065">
      <rect x="960" y="236" width="3" height="18" rx="1.5"/><rect x="968" y="230" width="3" height="30" rx="1.5"/><rect x="976" y="234" width="3" height="22" rx="1.5"/><rect x="984" y="226" width="3" height="38" rx="1.5"/><rect x="992" y="232" width="3" height="26" rx="1.5"/><rect x="1000" y="228" width="3" height="34" rx="1.5"/><rect x="1008" y="236" width="3" height="18" rx="1.5"/><rect x="1016" y="224" width="3" height="42" rx="1.5"/><rect x="1024" y="230" width="3" height="30" rx="1.5"/><rect x="1032" y="234" width="3" height="22" rx="1.5"/><rect x="1040" y="226" width="3" height="38" rx="1.5"/><rect x="1048" y="232" width="3" height="26" rx="1.5"/><rect x="1056" y="228" width="3" height="34" rx="1.5"/><rect x="1064" y="236" width="3" height="18" rx="1.5"/><rect x="1072" y="226" width="3" height="38" rx="1.5"/><rect x="1080" y="232" width="3" height="26" rx="1.5"/>
    </g>

    <rect x="750" y="370" width="408" height="42" rx="11" fill="#f3f2e9" fill-opacity="0.045"/>
    <circle cx="771" cy="391" r="4" fill="#ff6516"/>
    <text x="786" y="395" fill="#aeb4a9" font-family="Arial,Helvetica,sans-serif" font-size="10" font-weight="700" letter-spacing="1.1">RESILIENT PLAYBACK · ON-DEVICE LIBRARY</text>
  </g>
</svg>
